<svg version="1.1" id="Layer_1" xmlns="http://www.w3.org/2000/svg" xmlns:xlink="http://www.w3.org/1999/xlink" x="0px" y="0px"
	 viewBox="0 0 864 864" style="enable-background:new 0 0 864 864;" xml:space="preserve">
<style type="text/css">
	.st0{fill:#FFFFFF;stroke:#000000;stroke-width:1.3149;stroke-miterlimit:10;}
	.st1{fill:#56ffea;}
	.st2{fill:#eeec4d;}
	.st3{fill:none;stroke:#000000;stroke-miterlimit:10;}
</style>
<g>
	<path d="M267.4,392.6c-11.5,0-24.6-4.3-25.1-4.5l-3.8-1.3l-1-16.9l-5.9,1.2c-0.1,0.8-0.2,1.6-0.3,2.3c-0.2,1.2-0.5,3.7-1.6,6.1
		c-2.1,4.7-5.5,5.4-7.4,5.4c-0.5,0-0.9,0-1.4-0.1c0,0-0.1,0-0.2,0c-0.7,0-1.8,0.2-3.2,0.5c-2.6,0.5-6.2,1.2-11.1,1.2
		c-1.2,0-2.5,0-3.8-0.1c-10.5-0.7-24.4-4.8-28.5-9.9c-2.1-2.6-2.4-5.8,0.3-19.9c1.3-7.1,3.2-15.4,4.5-21.4c-0.3-0.7-0.6-1.3-0.9-2
		l-12.1,2.6v-7.3c0-0.6,0-15.4,3.1-40.8c0.6-5,0.8-11,0.7-17.9c-11.7-1.2-20.9-11-20.9-22.9c0-3.3,0.7-6.5,2-9.4l-2.3-1.3l-2.5-29.6
		l0.5,0.1c-0.1-0.6-0.2-1.2-0.3-1.9c-0.2-1.2-0.4-2-0.5-2.5c-0.7,0.2-1.4,0.4-2,0.6c-2.8,0.9-6.6,2-11.1,2c-1.4,0-2.8-0.1-4.1-0.3
		c-0.4-0.1-0.9-0.1-1.3-0.1c-6.3,0-11.9,7.5-12.8,9.3l-0.7,2.9l-3.4,1.1c-0.8,0.3-2.5,0.8-4.3,0.8c-2.6,0-4.8-1-6.3-2.9
		c-0.7-0.8-1.1-1.7-1.4-2.8c-0.1,0.5-0.1,0.9-0.2,1.2c-1.6,12.9-9.5,14-11.9,14c0,0,0,0,0,0c-3.5,8.3-13.2,12.5-14.4,13l-11,4.5
		l5.3-19.7c0.8-2.8-0.5-5-3.9-9.5c-1.4-1.9-2.9-4-4.2-6.3c-1.9-3.4-4.8-7.3-7.7-11.1c-2.6-3.5-5.1-6.8-7-10c-1.2-2-2.2-4.7-3.1-8.4
		c-0.7-0.6-1.2-1.3-1.6-2.1c-0.5-1.1-0.7-2.2-0.5-3.4l-2-16.9c-0.4-2.6-1-5.9-1.6-8.9c-0.7-3.1-0.6-6.1,0.3-9
		c0.7-2.9,2.6-8.2,8.3-11.8c5.6-4.6,12.8-7.9,19.2-10.6c10.5-4.4,28.3-9.4,38-9.7c3.8-0.1,3.9-0.3,6.2-3.9c0.6-1,1.3-2.1,2.2-3.3
		c1.6-2.3,3-4.2,4.1-5.6c-1.4-1.9-2.8-4.3-3.8-6.7c-1.5-3.8-0.3-6.5,0.5-7.8c2.4-3.6,6.8-3.6,8.4-3.6c1.5,0,3.2,0.1,5,0.3l0.1,0
		c0.8,0.1,1.7,0.1,2.6,0.2c0.3,0,0.6,0,0.9,0c4.8,0,13.1-2.1,21.7-5.6c1.4-0.6,3.3-1.1,5.7-1.6c0-0.7,0-1.3,0-2
		c0.3-9.2,12.7-15.9,23.5-21.8c3.1-1.7,6-3.3,7.9-4.5c2.1-1.4,5.1-3.6,8.3-5.9c12-8.7,14.6-10.4,17.5-10.4c2.4,0,4.5,1.3,5.5,3.4
		c1.8,3.6-0.7,6.7-1.6,7.9c-1.7,2.1-1.8,7.2-1,12c4.4-1,8.5-1.8,11.6-2.1c4.2-0.4,18.9-8.3,35.8-19.2c0.9-0.6,1.5-1,1.6-1l4.2-2.7
		l3.4,3.6c4.6,5,2.2,13.1-0.8,20.4c-2.5,6.3-6.6,14.3-12.2,23.8c-6.9,11.9-14.3,23.2-17.9,28.6c2.4,5.6,6.9,16.6,8.3,24.2
		c0.1,0.5,1.9,2.8,8.9,4.8c5.3,1.6,10.6,2.1,10.6,2.1l2.4,0.2l0.3,2.4l0.9,8.2l-2.3,0.7c-4.1,1.3-9,1.6-12.4,1.6
		c-3,0-6.1-0.2-9.1-0.6c4.2,5.1,12.4,10.9,17.4,14.3c7.2,5,10.4,7.3,10.9,11.2c0.2,1.9-0.3,3.7-1.5,5.1c-2.4,2.8-6.2,2.8-7.6,2.8
		c-2.5,0-5.5-0.4-8.8-0.8c-2.2-0.3-4.5-0.6-6.5-0.7c1.3,0.8,2.7,1.7,4,2.4c4.4,2.5,8.5,4.9,8,9.7c-0.3,2.7-2.3,4.9-5.3,5.7
		c-0.9,0.3-1.8,0.5-2.7,0.7c2.6-0.1,4.9-0.2,7-0.2c5.6,0,9.7,0.4,12.5,1.3c3,0.9,12.4,1.9,29.8,1.9c30.7,0,62.8-3,70-6.5
		c4.6-2.2,9.3-17.2,12.1-26.1c2.4-7.6,4.5-14.2,7.1-19.1c1.2-2.3,4.8-9.2,11.9-9.2c1.4,0,2.9,0.3,4.3,0.9
		c10.1,4.4,10.5,22.7,10.3,52.3c-0.1,8.6-0.1,16.8,0.3,23.1c0.4,6,1.1,8.3,1.4,8.9c10.1,7,27.1,39,30.4,45.5l3.6,6.9l-14.4,3.1
		l6.7,23.8l-9-0.6c1.6,4,3.8,8.9,6.3,14c5.4,10.5,4.7,24.8,4,37.3c-0.2,3.5-0.3,6.8-0.3,9.6c0,3.4-1.4,9.5-10.5,12.6
		c-3.9,1.3-9,2-15.3,2c-7.6,0-14.2-1-14.5-1l-2.9-0.4l-1.4-2.6c0-0.1-3.6-6.5-9.2-12.4l-4.6,9.9h-3.8c-0.3,0-7.3,0-12.9-0.7
		c-1.3,0-5,1.9-7.4,3.1c-4.1,2.1-8.8,4.5-13.7,5.3c-0.9,0.2-1.8,0.2-2.6,0.2c-4.4,0-8-2.1-9.9-6.1c-1.3-2.5-1.6-5.4-2-7.8
		c-0.2-1.2-0.3-2.4-0.5-3.1c-0.9-2.8-0.5-6.5,1-11.4l-2.2,1.7l-8.6-6.6l-13,13.3l-4.3-0.8l8.8,30.8L300.6,377l-0.9,6.7l-3.8,1
		c-0.1,0-7.5,2.1-17.6,6.1C275.3,392,271.7,392.6,267.4,392.6z"/>
	<g>
		<path class="st0" d="M431.8,293.2l9.9,0.7l-6.1-21.8l12.9-2.8c0,0-19.8-37.9-28.9-43.6c-9.1-5.6,2.3-78-10.6-83.6
			c-12.9-5.6-16,46.4-30.4,53.4c-14.4,7-90.4,9.1-104.1,4.9c-4.7-1.4-14.5-1.2-25.4-0.3c-2.7-2.1-4.7-4.1-4.7-5.8
			c0-5.1,7.4-5.3,13.3-7c6-1.7-15.1-7.6-14.7-15c0.4-7.5,25.3,0.9,28.1-2.3c2.7-3.1-35-19.8-30.5-34.5c5.8,2.3,20.1,3.7,27.8,1.2
			c0,0-23-2.2-24.8-11.7c-1.7-9.5-9.2-25.8-9.2-25.8s41-59.9,33.3-68.2c0,0-0.6,0.4-1.6,1c-6.4,4.1-30.5,19.3-38.4,20.1
			c-5.7,0.6-15.8,2.9-23.2,5.5l6.2-3.8c0,0-4.2-14.4,1.2-21.2c5.4-6.8-13.8,8.2-21.8,13.6c-8,5.4-28.6,13.7-28.9,21.7
			c-0.1,2.5,0.4,4.7,1.1,6.5c-4.4,0.7-8.2,1.5-10.5,2.4c-7.6,3-18.3,6.4-25.2,5.9c-6.8-0.5-12.5-1.6-10.8,2.8c1.7,4.4,6,9.1,6,9.1
			s-2.8,2.6-7,8.7c-4.2,6.1-4.4,9.6-13,9.8c-8.6,0.3-25.3,4.8-35.9,9.3c-5.6,2.4-12.9,5.6-18,9.9c-4.2,2.5-5.6,6.4-6,8.4
			c-0.6,1.9-0.7,4-0.2,6.3c0.6,2.9,1.2,6.1,1.7,9.4l2.1,18.2c0,0-0.7,0.8,1.2,0.8c0.9,4.1,1.9,7.5,3.1,9.6
			c3.8,6.4,11,14.3,14.8,21.3c3.8,7,10.7,12,8.5,20.2c-2.2,8.2-2.2,8.2-2.2,8.2s13-5.3,11.9-14.9c-1.1-9.6,0.5-22.3,2.5-15.1
			c2.1,7.2,1.3,16.4,1.3,16.4s5.6,1.7,6.9-8.7c1.3-10.4,2.1-13.9,5.4-11.9c3.3,1.9,8,0.3,6.4,7.3c-1.3,5.3,3.1,3.8,4.5,3.4
			c0.4-1.8,9-15.2,20.8-13.3c13.2,2.1,20.4-10,22.8,5.1c0.8,4.9,1.5,8,2.6,9.9c-1.3-0.1-2.1-0.2-2.1-0.2l1.6,19.2
			c0,0,1.5,0.8,6.1,1.8c-3.4,3.1-5.5,7.6-5.5,12.5c0,9.4,7.7,17.1,17.2,17.1c1.2,0,2.3-0.1,3.4-0.3c0.4,8.6,0.3,17.4-0.5,24.8
			c-3,25.3-3,40.1-3,40.1l9.9-2.1c0,0,1.3,3.8,3.4,8.2c-3,12.8-8.1,36.1-6.4,38.1c2.3,2.8,13.7,7,24.3,7.7c10.6,0.7,15.2-2.1,19-1.4
			c3.8,0.7,3.8-12.6,3.8-12.6l6.8-1.4l2.1-17.8l7-3.2l2.3,38.6c0,0,21.3,7,31.9,2.8c10.6-4.2,18.2-6.3,18.2-6.3l1.5-11.2l14.4,7.7
			l-7.6-26.7l10.6,2.1l14.4-14.8l9.1,7l9.1-7l2,6.3c-1.8,3.9-5.5,12.5-4.3,16.2c1.5,4.9,0,14.1,8.4,12.7c8.4-1.4,17.5-9.1,22.8-8.4
			c5.3,0.7,12.2,0.7,12.2,0.7l6.4-13.7c10,7.4,16.4,19.3,16.4,19.3s33.4,4.9,33.4-7.7c0-12.6,3-32.3-3-44.3
			C435.6,304.4,431.8,293.2,431.8,293.2z"/>
		<path class="st0" d="M110.3,211.1c0.4-0.3,0.2-0.3-0.2-0.1C110,211.2,110.1,211.3,110.3,211.1z"/>
	</g>
	<path class="st1" d="M155.4,213.3c0,0,31.9,4.2,54.1-0.9c22.2-5.1,39.9-11.4,39.9-11.4l5,16c0,0-8.6,21.4-48.7,20.8
		c-40.1-0.5-48.7-5.4-48.7-5.4L155.4,213.3z"/>
	<g>
		<path d="M223.3,79.6c-0.3-2.4,0.9-4.9,2.7-7.5c-7.8,3.6-16.2,4.8-16.6,4.9l-0.5-3.5c0.1,0,11.9-1.8,20-6.9c1-0.6,1.7-1,2.2-1.3
			c0.5-0.2,1.9-1,2.9,0.2c0.7,0.8,0.6,1.7-0.3,2.8c-0.3,0.4-0.7,0.8-1.2,1.3c-1.8,2.1-6.1,6.9-5.7,9.6L223.3,79.6z"/>
	</g>
	<path d="M155.4,130.3c-0.4-2.6-3.7-26-11.3-30.4c-1.6-0.9-3.3-1.1-5-0.4c-4.2,1.7-7.5,5.7-9.5,8.8c-2.4,3.7-4.3,8-5.1,11.8
		c-0.6,2.6-0.8,6.1,1,8c1.1,1.2,4,2.8,15.9,3.7c6,0.4,11.6,0.4,12.2,0.4c0,0,0.1,0,0.1,0l2,0L155.4,130.3z M141.7,128.4
		c2.1-3.8-8.8-18-8.8-18c-0.2,0.1-0.4,0.1-0.5,0.2c2.3-3.6,5.2-6.6,8.1-7.8c0.3-0.1,0.6-0.2,0.8-0.2c0.4,0,0.7,0.1,1.1,0.3
		c4.3,2.5,7.8,16.4,9.3,25.8C148.3,128.7,144.9,128.6,141.7,128.4z"/>
	<path d="M52.9,128.8c0,0,26.3,35.5,7.9,41.3c-18.4,5.8-15.7,2.7-15.7,2.7l-3.8-32.6C41.3,140.2,42,130.4,52.9,128.8z"/>
	<g>
		<g>
			<path d="M365.2,135.7l0.2-1c3.4-16.9,14-22.6,14.5-22.8l0.9-0.5l1.3,2.4l1.3,2.4l-0.9,0.5c0,0-2.2,1.2-4.7,4
				c-2.3,2.7-5.5,7.5-6.9,15l-0.2,1L365.2,135.7z"/>
		</g>
		<g>
			<path d="M380.2,135.2c-1.1-8.6,5.3-13,8.8-14.2l0.9-0.3l0.8,2.6l0.9,2.6l-0.9,0.3c-0.2,0.1-6,2.1-5.1,8.3l0.1,1l-5.4,0.7
				L380.2,135.2z"/>
		</g>
	</g>
	<g>
		<g>
			<path d="M429.4,162l0.8-0.6c6.5-4.7,9.7-9.5,11.2-12.6c1.6-3.3,1.7-5.6,1.7-5.6l0-1l1,0l4.5,0.1l0,1c0,0.5-0.5,11.9-15.1,22.5
				l-0.8,0.6L429.4,162z"/>
		</g>
		<g>
			<path d="M423.5,149l0.9-0.3c6.5-2.3,5.7-7.7,5.7-7.9l-0.2-1l5.4-0.8l0.1,1c0.5,3.5-0.7,10.9-9.3,13.9l-0.9,0.3L423.5,149z"/>
		</g>
	</g>
	<path class="st2" d="M187.4,246.5c0,8.7-7.1,15.8-16,15.8c-8.8,0-16-7.1-16-15.8c0-8.7,7.1-15.8,16-15.8
		C180.2,230.7,187.4,237.8,187.4,246.5z"/>
</g>
</svg>
